<svg xmlns="http://www.w3.org/2000/svg" xmlns:xlink="http://www.w3.org/1999/xlink" viewBox="0 0 18 18">
  <defs>
    <style>
      .cls-1 {
        fill: #fff;
        stroke: #707070;
      }

      .cls-2 {
        clip-path: url(#clip-path);
      }

      .cls-3 {
        fill: #644b39;
      }
    </style>
    <clipPath id="clip-path">
      <rect id="icon-mail" class="cls-1" width="18" height="18" transform="translate(813 488)"/>
    </clipPath>
  </defs>
  <g id="icon-mail-2" data-name="icon-mail" class="cls-2" transform="translate(-813 -488)">
    <g id="ios-mail" transform="translate(813 490.769)">
      <path id="Path_3" data-name="Path 3" class="cls-3" d="M20.161,7.079,15.5,11.821a.084.084,0,0,0,0,.121l3.258,3.47a.561.561,0,0,1,0,.8.564.564,0,0,1-.8,0l-3.245-3.457a.089.089,0,0,0-.125,0l-.792.8A3.484,3.484,0,0,1,11.321,14.6a3.554,3.554,0,0,1-2.536-1.077l-.762-.775a.089.089,0,0,0-.125,0L4.653,16.209a.564.564,0,0,1-.8,0,.561.561,0,0,1,0-.8l3.258-3.47a.092.092,0,0,0,0-.121L2.455,7.079a.085.085,0,0,0-.147.061v9.489a1.389,1.389,0,0,0,1.385,1.385H18.923a1.389,1.389,0,0,0,1.385-1.385V7.139A.087.087,0,0,0,20.161,7.079Z" transform="translate(-2.308 -5.551)"/>
      <path id="Path_4" data-name="Path 4" class="cls-3" d="M11.366,13.307a2.352,2.352,0,0,0,1.692-.71l6.789-6.91a1.36,1.36,0,0,0-.857-.3H3.746a1.351,1.351,0,0,0-.857.3L9.678,12.6A2.353,2.353,0,0,0,11.366,13.307Z" transform="translate(-2.366 -5.385)"/>
    </g>
  </g>
</svg>
