<svg xmlns="http://www.w3.org/2000/svg" xmlns:xlink="http://www.w3.org/1999/xlink" viewBox="0 0 18 18">
  <defs>
    <style>
      .cls-1 {
        fill: #fff;
        stroke: #707070;
      }

      .cls-2 {
        clip-path: url(#clip-path);
      }

      .cls-3 {
        fill: #644b39;
      }
    </style>
    <clipPath id="clip-path">
      <rect id="Rectangle_2" data-name="Rectangle 2" class="cls-1" width="18" height="18" transform="translate(746 338)"/>
    </clipPath>
  </defs>
  <g id="icon-phone" class="cls-2" transform="translate(-746 -338)">
    <path id="ios-call" class="cls-3" d="M22.8,19.428a15.119,15.119,0,0,0-3.158-2.113c-.947-.455-1.293-.445-1.963.037-.558.4-.918.778-1.56.637a9.308,9.308,0,0,1-3.135-2.319,9.241,9.241,0,0,1-2.319-3.135c-.136-.647.239-1,.637-1.56.483-.67.5-1.017.037-1.963A14.82,14.82,0,0,0,9.225,5.853c-.689-.689-.843-.539-1.223-.4a6.959,6.959,0,0,0-1.12.6,3.378,3.378,0,0,0-1.345,1.42c-.267.576-.576,1.649,1,4.452A24.839,24.839,0,0,0,10.9,17.741l0,0,0,0a24.936,24.936,0,0,0,5.824,4.367c2.8,1.574,3.875,1.265,4.452,1a3.321,3.321,0,0,0,1.42-1.345,6.96,6.96,0,0,0,.6-1.12C23.338,20.271,23.493,20.116,22.8,19.428Z" transform="translate(740.68 332.666)"/>
  </g>
</svg>
